<svg fill="none" height="24" viewBox="0 0 24 24" width="24" xmlns="http://www.w3.org/2000/svg"><path d="m22 5.9246c-.7355.32591-1.5256.54611-2.3562.64565.8473-.50736 1.4974-1.31243 1.8039-2.27077-.7927.47036-1.6709.81212-2.6055.99533-.7487-.79626-1.8145-1.29481-2.9948-1.29481-2.2654 0-4.1028 1.8374-4.1028 4.10464 0 .32062.037.63243.1057.93368-3.41147-.17176-6.43358-1.80569-8.45772-4.28786-.35233.60777-.55492 1.31243-.55492 2.06289 0 1.42342.72492 2.68035 1.82507 3.41585-.67295-.022-1.30538-.2061-1.85854-.51353v.05285c0 1.98798 1.41373 3.64658 3.29164 4.02358-.34528.0934-.7073.1427-1.08077.1427-.26425 0-.52233-.0246-.77248-.0722.52233 1.6295 2.03735 2.8169 3.83335 2.8486-1.40492 1.101-3.17449 1.7572-5.09645 1.7572-.33119 0-.65798-.0194-.97948-.0572 1.81626 1.1653 3.97252 1.8435 6.28909 1.8435 7.54871 0 11.67531-6.2521 11.67531-11.67441 0-.17617-.0044-.35409-.0123-.53026.8015-.57958 1.4974-1.30098 2.0461-2.12279z" fill="#000"/></svg>